<mxfile host="app.diagrams.net" modified="2024-02-18T12:23:05.332Z" agent="Mozilla/5.0 (Macintosh; Intel Mac OS X 10.15; rv:122.0) Gecko/20100101 Firefox/122.0" version="22.1.21" etag="4YMX1T906UFqFOo4s8lb" type="github">
  <diagram name="Page-1" id="Ict6ZwUcwGf2-yPK0wla">
    <mxGraphModel>
      <root>
        <mxCell id="0" />
        <mxCell id="1" parent="0" />
      </root>
    </mxGraphModel>
  </diagram>
</mxfile>
